<?xml version="1.0"?>
<svg xmlns="http://www.w3.org/2000/svg" height="512px" viewBox="-8 0 480 480" width="512px" class=""><g><path d="m224 360c39.765625 0 72-32.234375 72-72s-32.234375-72-72-72-72 32.234375-72 72c.046875 39.746094 32.253906 71.953125 72 72zm0-112c22.089844 0 40 17.910156 40 40s-17.910156 40-40 40-40-17.910156-40-40 17.910156-40 40-40zm0 0" fill="#78b9eb" data-original="#78B9EB" class="" data-old_color="#78b9eb" style="fill:#FFFFFF"/><g fill="#1a6fb0"><path d="m224 208c-44.183594 0-80 35.816406-80 80s35.816406 80 80 80 80-35.816406 80-80c-.046875-44.164062-35.835938-79.953125-80-80zm0 144c-35.347656 0-64-28.652344-64-64s28.652344-64 64-64 64 28.652344 64 64c-.039062 35.328125-28.671875 63.960938-64 64zm0 0" data-original="#1A6FB0" class="active-path" data-old_color="#1A6FB0" style="fill:#000000"/><path d="m224 240c-26.507812 0-48 21.492188-48 48s21.492188 48 48 48 48-21.492188 48-48c-.027344-26.5-21.5-47.972656-48-48zm0 80c-17.671875 0-32-14.328125-32-32s14.328125-32 32-32 32 14.328125 32 32-14.328125 32-32 32zm0 0" data-original="#1A6FB0" class="active-path" data-old_color="#1A6FB0" style="fill:#000000"/><path d="m344 16c57.4375 0 104 46.5625 104 104 0 4.417969 3.582031 8 8 8s8-3.582031 8-8c0-66.273438-53.726562-120-120-120-4.417969 0-8 3.582031-8 8s3.582031 8 8 8zm0 0" data-original="#1A6FB0" class="active-path" data-old_color="#1A6FB0" style="fill:#000000"/><path d="m344 48c19.097656-.011719 37.417969 7.570312 50.921875 21.078125 13.507813 13.503906 21.089844 31.824219 21.078125 50.921875 0 4.417969 3.582031 8 8 8s8-3.582031 8-8c.011719-23.34375-9.253906-45.734375-25.761719-62.238281-16.503906-16.507813-38.894531-25.773438-62.238281-25.761719-4.417969 0-8 3.582031-8 8s3.582031 8 8 8zm0 0" data-original="#1A6FB0" class="active-path" data-old_color="#1A6FB0" style="fill:#000000"/><path d="m344 80h.214844c22.03125.066406 39.839844 17.972656 39.785156 40 0 4.417969 3.582031 8 8 8s8-3.582031 8-8c.039062-30.851562-24.910156-55.90625-55.761719-56h-.238281c-4.417969 0-8 3.582031-8 8s3.582031 8 8 8zm0 0" data-original="#1A6FB0" class="active-path" data-old_color="#1A6FB0" style="fill:#000000"/><path d="m424 384h-52.640625c18.785156-28.484375 28.75-61.878906 28.640625-96 0-97.203125-78.796875-176-176-176s-176 78.796875-176 176c-.109375 34.121094 9.855469 67.515625 28.640625 96h-52.640625c-13.253906 0-24 10.746094-24 24v48c0 13.253906 10.746094 24 24 24h400c13.253906 0 24-10.746094 24-24v-48c0-13.253906-10.746094-24-24-24zm-360-96c0-88.367188 71.632812-160 160-160s160 71.632812 160 160c.089844 34.683594-11.265625 68.425781-32.304688 96h-255.390624c-21.039063-27.574219-32.394532-61.316406-32.304688-96zm368 168c0 4.417969-3.582031 8-8 8h-400c-4.417969 0-8-3.582031-8-8v-48c0-4.417969 3.582031-8 8-8h400c4.417969 0 8 3.582031 8 8zm0 0" data-original="#1A6FB0" class="active-path" data-old_color="#1A6FB0" style="fill:#000000"/><path d="m312 440h32v16h-32zm0 0" data-original="#1A6FB0" class="active-path" data-old_color="#1A6FB0" style="fill:#000000"/><path d="m352 440h32v16h-32zm0 0" data-original="#1A6FB0" class="active-path" data-old_color="#1A6FB0" style="fill:#000000"/><path d="m392 440h32v16h-32zm0 0" data-original="#1A6FB0" class="active-path" data-old_color="#1A6FB0" style="fill:#000000"/><path d="m355.3125 131.3125c6.0625-6.277344 5.976562-16.257812-.195312-22.429688-6.171876-6.171874-16.152344-6.257812-22.429688-.195312-6.0625 6.277344-5.976562 16.257812.195312 22.429688 6.171876 6.171874 16.152344 6.257812 22.429688.195312zm0 0" data-original="#1A6FB0" class="active-path" data-old_color="#1A6FB0" style="fill:#000000"/></g></g> </svg>
