<svg xmlns="http://www.w3.org/2000/svg" style="display: none;"><symbol id="cam" viewBox="0 0 512 512"><title>cam</title><path d="M511.985,211.399c-0.204-4.679-2.811-13.353-17.976-18.872L89.696,45.514c-20.725-7.541-43.725,3.181-51.269,23.907 L27.482,99.49c0,0-0.001,0.003-0.002,0.005L2.857,167.148c-7.543,20.727,3.181,43.725,23.91,51.27l117.836,42.839 c-2.239,13.62,1.496,27.077,9.626,37.372l-25.102,68.963c-1.155,3.174-4.203,5.307-7.584,5.307H48v-24c0-13.233-10.766-24-24-24H8 c-4.418,0-8,3.582-8,8v128c0,4.418,3.582,8,8,8h16c13.234,0,24-10.767,24-24v-24h73.543c23.488,0,44.662-14.828,52.689-36.896 l24.574-67.514c14.063-1.974,26.843-10.185,34.429-23.009l137.703,50.062c4.501,1.638,9.107,2.415,13.641,2.415 c13.751-0.001,26.817-7.149,34.134-19.08l15.802,5.751c1.785,0.649,3.635,0.973,5.48,0.973c2.303,0,4.598-0.504,6.747-1.506 c3.871-1.805,6.807-5.01,8.267-9.022l21.897-60.162c2.663-7.317-0.376-15.336-6.829-19.188l25.646-11.958 C510.349,224.945,512.189,216.078,511.985,211.399z M32,444.899c0,4.411-3.589,8-8,8h-8v-112h8c4.411,0,8,3.589,8,8V444.899z M159.197,378.532c-5.737,15.771-20.869,26.367-37.654,26.367H48v-16h73.543c10.082,0,19.171-6.363,22.619-15.834l22.965-63.094 c2.635,1.583,5.458,2.942,8.456,4.033c2.128,0.775,4.275,1.388,6.426,1.853L159.197,378.532z M193.104,300.917 c-0.185-0.001-0.369-0.001-0.553,0.01c-3.81,0.051-7.697-0.575-11.496-1.958c-4.447-1.619-8.325-4.11-11.502-7.213 c-0.291-0.354-0.614-0.682-0.967-0.983c-5.958-6.346-9.148-14.961-8.544-23.903l57.758,20.998 C211.956,295.894,202.808,300.618,193.104,300.917z M461.873,257.439l-21.883,60.155l-15.046-5.476l20.756-57.027l4.249-1.981 L461.873,257.439z M488.963,217.264l-42.767,19.942c-0.005,0.002-0.009,0.004-0.013,0.006l-10.242,4.776 c-0.004,0.002-0.007,0.003-0.011,0.005l-12.008,5.599c-14.092,6.571-38.343,7.629-52.958,2.31l-231.409-84.081 c-4.151-1.507-8.742,0.635-10.251,4.787c-1.509,4.153,0.634,8.742,4.787,10.252l231.405,84.079 c8.052,2.931,17.977,4.358,28.105,4.358c11.073,0,22.379-1.715,31.736-5.036l-18.162,49.901 c-4.526,12.436-18.326,18.87-30.764,14.343L32.236,203.382c-12.436-4.526-18.87-18.325-14.344-30.761l13.688-37.608 c4.565,7.018,11.354,12.669,19.81,15.747l7.52,2.736c4.148,1.512,8.742-0.63,10.253-4.782c1.511-4.151-0.63-8.742-4.782-10.253 l-7.519-2.736c-12.434-4.526-18.869-18.322-14.346-30.757l2.738-7.523c0,0,0.001-0.002,0.001-0.003l8.207-22.549 c4.527-12.436,18.326-18.873,30.764-14.344l404.313,147.014c5.136,1.869,7.036,3.817,7.422,4.535 C495.639,212.848,493.917,214.953,488.963,217.264z"/><path d="M109.485,154.878l-15.037-5.474c-4.151-1.513-8.742,0.63-10.254,4.781c-1.511,4.151,0.629,8.742,4.781,10.254l15.037,5.474 c0.903,0.329,1.827,0.484,2.736,0.484c3.268,0,6.335-2.018,7.518-5.266C115.778,160.981,113.637,156.39,109.485,154.878z"/></symbol><symbol id="camera" viewBox="-54 0 512 512"><title>camera</title><path d="m246 183c0-23.433594-19.066406-42.5-42.5-42.5s-42.5 19.066406-42.5 42.5 19.066406 42.5 42.5 42.5 42.5-19.066406 42.5-42.5zm-70 0c0-15.164062 12.335938-27.5 27.5-27.5s27.5 12.335938 27.5 27.5-12.335938 27.5-27.5 27.5-27.5-12.335938-27.5-27.5zm0 0"/><path d="m290 183c0-47.695312-38.804688-86.5-86.5-86.5s-86.5 38.804688-86.5 86.5 38.804688 86.5 86.5 86.5 86.5-38.804688 86.5-86.5zm-158 0c0-39.425781 32.074219-71.5 71.5-71.5s71.5 32.074219 71.5 71.5-32.074219 71.5-71.5 71.5-71.5-32.074219-71.5-71.5zm0 0"/><path d="m62.90625 74.164062c1.421875 1.242188 3.179688 1.851563 4.929688 1.851563 2.089843 0 4.171874-.871094 5.652343-2.570313 4.433594-5.074218 9.214844-9.941406 14.214844-14.464843 3.070313-2.777344 3.3125-7.519531.53125-10.59375-2.777344-3.070313-7.519531-3.308594-10.59375-.53125-5.4375 4.914062-10.636719 10.207031-15.453125 15.726562-2.722656 3.121094-2.402344 7.859375.71875 10.582031zm0 0"/><path d="m380.5 467h-34.5v-19c0-4.144531-3.355469-7.5-7.5-7.5s-7.5 3.355469-7.5 7.5v19h-259v-57.179688c0-27.28125 16.757812-51.429687 42.015625-61.046874 26.199219 14.175781 56.167969 22.226562 87.984375 22.226562 31.648438 0 61.46875-7.96875 87.566406-22 24.910156 9.773438 41.433594 33.828125 41.433594 60.820312v5.804688c0 4.144531 3.355469 7.5 7.5 7.5s7.5-3.355469 7.5-7.5v-5.804688c0-29.460937-16.011719-56.078124-41.035156-70.089843 49.730468-33.304688 82.535156-90.007813 82.535156-154.230469 0-102.285156-83.214844-185.5-185.5-185.5-34.679688 0-68.5 9.632812-97.808594 27.855469-3.519531 2.183593-4.597656 6.808593-2.410156 10.328125 2.1875 3.515625 6.8125 4.597656 10.328125 2.410156 26.929687-16.742188 58.015625-25.59375 89.890625-25.59375 94.015625 0 170.5 76.484375 170.5 170.5s-76.484375 170.5-170.5 170.5-170.5-76.484375-170.5-170.5c0-30.804688 8.300781-60.984375 24-87.277344 2.125-3.558594.964844-8.160156-2.59375-10.285156-3.554688-2.125-8.160156-.960938-10.285156 2.59375-17.089844 28.621094-26.121094 61.460938-26.121094 94.96875 0 64.023438 32.601562 120.574219 82.074219 153.921875-25.351563 13.910156-41.574219 40.640625-41.574219 70.398437v57.179688h-34.5c-12.40625 0-22.5 10.09375-22.5 22.5s10.09375 22.5 22.5 22.5h358c12.40625 0 22.5-10.09375 22.5-22.5s-10.09375-22.5-22.5-22.5zm0 30h-358c-4.136719 0-7.5-3.363281-7.5-7.5s3.363281-7.5 7.5-7.5h358c4.136719 0 7.5 3.363281 7.5 7.5s-3.363281 7.5-7.5 7.5zm0 0"/><path d="m185.128906 402.703125c-3.609375-2.035156-8.183594-.757813-10.21875 2.851563-2.558594 4.535156-3.910156 9.707031-3.910156 14.945312 0 16.816406 13.683594 30.5 30.5 30.5s30.5-13.683594 30.5-30.5c0-5.238281-1.351562-10.410156-3.910156-14.945312-2.035156-3.609376-6.609375-4.886719-10.21875-2.851563-3.605469 2.035156-4.882813 6.609375-2.847656 10.21875 1.292968 2.292969 1.976562 4.914063 1.976562 7.578125 0 8.546875-6.953125 15.5-15.5 15.5s-15.5-6.953125-15.5-15.5c0-2.664062.683594-5.285156 1.976562-7.578125 2.035157-3.609375.757813-8.183594-2.847656-10.21875zm0 0"/><path d="m209 416.5v-25c0-4.144531-3.355469-7.5-7.5-7.5s-7.5 3.355469-7.5 7.5v25c0 4.144531 3.355469 7.5 7.5 7.5s7.5-3.355469 7.5-7.5zm0 0"/></symbol></svg>